<?xml version="1.0" encoding="UTF-8" standalone="no"?>
<!DOCTYPE svg PUBLIC "-//W3C//DTD SVG 1.1//EN" "http://www.w3.org/Graphics/SVG/1.1/DTD/svg11.dtd">
<svg width="100%" height="100%" viewBox="0 0 64 64" version="1.1" xmlns="http://www.w3.org/2000/svg" xmlns:xlink="http://www.w3.org/1999/xlink" xml:space="preserve" xmlns:serif="http://www.serif.com/" style="fill-rule:evenodd;clip-rule:evenodd;stroke-linejoin:round;stroke-miterlimit:2;">
    <g id="Sheriff" transform="matrix(1,0,0,1,9.40605,4.56982)">
        <path d="M37.276,26.208C37.452,24.316 34.764,20.098 33.105,18.723C31.271,17.2 26.8,18.389 24.783,19.039L26.468,5.351C26.5,4.792 26.293,4.244 25.9,3.845C25.475,3.406 24.88,3.172 24.27,3.202C22.776,3.285 21.596,4.547 21.612,6.043L21.312,7.735C20.9,7.312 20.326,7.086 19.736,7.115L19.724,7.115C18.46,7.13 17.38,8.066 17.186,9.315L16.654,12.715C16.566,12.613 16.468,12.521 16.362,12.439C15.855,12.06 15.177,11.991 14.604,12.261C13.804,12.648 13.265,13.428 13.187,14.313C13.087,15.255 12.593,18.265 11.796,22.788C11.186,26.263 11.595,29.84 12.972,33.088C13.684,34.772 14.472,36.438 15.082,37.698L13.982,37.698C13.625,37.698 13.332,37.991 13.332,38.348L13.332,46.009C13.332,46.366 13.625,46.659 13.982,46.659C14.339,46.659 14.632,46.366 14.632,46.009L14.632,39L28.783,39L28.783,46.011C28.783,46.368 29.076,46.661 29.433,46.661C29.79,46.661 30.083,46.368 30.083,46.011L30.083,38.351C30.083,37.994 29.79,37.701 29.433,37.701L27.912,37.701C28.452,36.607 29.312,35.703 30.378,35.11C32.823,33.791 37.691,29.853 37.667,28.143C37.667,27.652 37.447,27.185 37.067,26.873C37.188,26.671 37.26,26.443 37.276,26.208ZM29.76,33.965C28.279,34.794 27.123,36.103 26.485,37.676C26.485,37.684 26.485,37.692 26.48,37.7L16.528,37.7C15.894,36.417 14.981,34.508 14.167,32.584C12.887,29.565 12.507,26.239 13.075,23.01C13.641,19.791 14.346,15.693 14.475,14.448C14.503,14.026 14.748,13.647 15.122,13.448C15.268,13.367 15.449,13.38 15.582,13.481C15.951,13.753 16.266,14.699 16.051,16.53L15.109,22.547C15.055,22.899 15.299,23.234 15.651,23.29C15.684,23.295 15.718,23.298 15.751,23.298C16.07,23.297 16.344,23.063 16.393,22.748L17.339,16.702L18.463,9.521C18.561,8.899 19.094,8.431 19.723,8.415C20.182,8.425 20.29,8.536 20.371,8.63C20.923,9.263 20.604,11.567 20.491,12.367L18.578,23.26C18.517,23.611 18.755,23.951 19.106,24.013C19.143,24.019 19.181,24.023 19.219,24.023C19.533,24.022 19.804,23.794 19.859,23.485L21.772,12.6L21.777,12.585L21.784,12.532L22.9,6.2C22.918,5.924 23.065,4.545 24.31,4.506C24.554,4.503 24.791,4.594 24.97,4.76C25.101,4.886 25.176,5.06 25.176,5.242L23.4,19.641C22.747,20.529 22.361,21.586 22.287,22.686C22.283,22.715 22.281,22.744 22.281,22.774C22.281,23.097 22.523,23.374 22.843,23.417C22.874,23.422 22.906,23.424 22.938,23.424C23.26,23.424 23.535,23.181 23.574,22.861C23.641,22.065 23.875,21.292 24.261,20.592C25.717,19.987 30.892,18.575 32.277,19.722C34.057,21.198 36.345,25.444 36.005,26.145C35.205,26.589 34.435,25.676 34.383,25.614C33.938,25.114 31.652,22.603 30.356,22.173C29.827,22.036 29.265,22.1 28.781,22.353C26.626,23.316 25.577,25.819 26.4,28.031C26.913,29.481 27.458,30.287 28.115,30.568C29.239,31.052 30.957,30.049 33.085,28.692C33.555,28.371 34.046,28.082 34.554,27.826C35.079,27.599 35.677,27.605 36.198,27.842C36.307,27.905 36.374,28.022 36.372,28.148C36.261,28.969 32.656,32.4 29.761,33.965L29.76,33.965ZM33.706,26.79C33.349,26.979 32.906,27.263 32.381,27.597C31.431,28.203 29.199,29.618 28.622,29.373C28.577,29.353 28.167,29.141 27.622,27.598C27.026,26.03 27.76,24.246 29.287,23.55C29.467,23.462 29.662,23.41 29.861,23.397C29.889,23.396 29.917,23.399 29.944,23.407C31.243,24.238 32.405,25.265 33.388,26.453C33.485,26.574 33.592,26.686 33.707,26.79L33.706,26.79Z" style="fill-rule:nonzero;"/>
    </g>
</svg>
