<?xml version="1.0" encoding="UTF-8" standalone="no"?>
<!DOCTYPE svg PUBLIC "-//W3C//DTD SVG 1.1//EN" "http://www.w3.org/Graphics/SVG/1.1/DTD/svg11.dtd">
<svg width="100%" height="100%" viewBox="0 0 64 64" version="1.1" xmlns="http://www.w3.org/2000/svg" xmlns:xlink="http://www.w3.org/1999/xlink" xml:space="preserve" xmlns:serif="http://www.serif.com/" style="fill-rule:evenodd;clip-rule:evenodd;stroke-linejoin:round;stroke-miterlimit:2;">
    <g transform="matrix(-1,0,0,1,29.25,-6.1116)">
        <path d="M10.438,29.138L10.454,32.335C10.853,32.108 11.304,31.99 11.763,31.992C12.747,31.97 13.656,32.528 14.083,33.415C14.542,33.107 15.083,32.945 15.635,32.949C16.713,32.9 17.704,33.564 18.07,34.58C18.465,34.333 18.922,34.202 19.387,34.204C20.631,34.158 21.696,35.135 21.756,36.379C21.772,37.125 21.817,37.951 21.864,38.808C22.069,42.526 22.298,46.741 20.464,48.315C19.121,49.463 19.076,51.59 19.135,52.557L20.921,52.557C21.25,52.557 21.521,52.827 21.521,53.157L21.521,61.137C21.521,61.466 21.25,61.737 20.921,61.737C20.592,61.737 20.321,61.466 20.321,61.137L20.321,53.757L5.796,53.757L5.796,61.137C5.796,61.466 5.525,61.737 5.196,61.737C4.867,61.737 4.596,61.466 4.596,61.137L4.596,53.158C4.596,52.828 4.867,52.558 5.196,52.558L6.475,52.558L6.475,50.519C6.317,50.353 5.969,50.037 5.656,49.753C4.298,48.519 2.023,46.454 1.24,44.561C0.256,42.267 0.363,39.646 1.531,37.441C2.013,36.539 2.773,35.816 3.698,35.381C4.001,35.244 4.33,35.172 4.662,35.169L5.362,35.169L5.362,29.138L6.562,29.138L6.562,35.171C6.544,36.228 6.278,37.266 5.785,38.202C5.579,38.596 5.468,39.033 5.461,39.478C5.453,40.376 5.617,41.269 5.944,42.106C5.979,42.183 5.997,42.267 5.997,42.353C5.997,42.682 5.726,42.953 5.397,42.953C5.162,42.953 4.947,42.814 4.85,42.6C4.453,41.607 4.252,40.547 4.261,39.478C4.267,38.846 4.422,38.224 4.712,37.663C4.924,37.248 5.089,36.813 5.206,36.363L4.684,36.363C4.522,36.364 4.362,36.398 4.214,36.463C3.52,36.79 2.951,37.333 2.59,38.011C1.595,39.899 1.508,42.141 2.354,44.101C3.033,45.745 5.183,47.698 6.467,48.864C7.471,49.775 7.679,49.966 7.679,50.336L7.679,52.558L17.925,52.558C17.861,51.354 17.965,48.876 19.68,47.405C21.067,46.216 20.844,42.144 20.667,38.873C20.62,38.006 20.575,37.165 20.558,36.406C20.47,35.831 19.971,35.403 19.39,35.403C18.8,35.403 18.296,35.844 18.218,36.429L18.218,38.353C18.218,38.682 17.947,38.953 17.618,38.953C17.289,38.953 17.018,38.682 17.018,38.353L17.018,37.463L16.957,35.132C16.841,34.511 16.259,34.08 15.632,34.151C14.914,34.151 14.307,34.608 14.307,35.151L14.307,37.628C14.288,37.943 14.023,38.192 13.707,38.192C13.377,38.192 13.106,37.921 13.106,37.591C13.106,37.579 13.106,37.567 13.107,37.555L13.085,34.335C13.022,33.664 12.433,33.156 11.76,33.192C11.163,33.169 10.624,33.56 10.46,34.135L10.473,36.924L10.433,37.403C10.418,37.708 10.163,37.951 9.858,37.951C9.841,37.951 9.825,37.95 9.808,37.949C9.49,37.934 9.236,37.667 9.236,37.349L9.236,34.362C9.236,34.246 9.245,34.131 9.262,34.018L9.238,29.138L10.438,29.138ZM5.361,24.081C5.361,24.063 5.36,24.044 5.36,24.026C5.36,22.64 6.501,21.5 7.886,21.5C9.272,21.5 10.412,22.64 10.412,24.026L10.412,24.056L9.213,24.062C9.213,23.33 8.622,22.721 7.888,22.703C7.152,22.73 6.563,23.343 6.562,24.075L5.361,24.081Z" style="fill-rule:nonzero;"/>
    </g>
    <g transform="matrix(1,0,0,1,14.0134,-6.125)">
        <path d="M28.315,14.036C26.741,12.202 22.526,12.431 18.808,12.636C17.951,12.683 17.125,12.728 16.379,12.744C15.135,12.804 14.158,13.869 14.204,15.113C14.202,15.578 14.333,16.035 14.58,16.43C13.564,16.796 12.9,17.787 12.949,18.865C12.945,19.417 13.107,19.958 13.415,20.417C12.528,20.844 11.97,21.753 11.992,22.737C11.99,23.196 12.108,23.647 12.335,24.046L4.063,24.088C4.05,24.088 4.038,24.088 4.026,24.088C2.64,24.088 1.5,25.228 1.5,26.614C1.5,27.999 2.64,29.14 4.026,29.14C4.057,29.14 4.088,29.139 4.12,29.138L15.169,29.138L15.169,29.838C15.172,30.17 15.244,30.499 15.381,30.802C15.816,31.727 16.539,32.487 17.441,32.969C19.646,34.137 22.267,34.244 24.561,33.26C26.454,32.477 28.519,30.202 29.753,28.844C30.037,28.531 30.353,28.183 30.519,28.025L32.558,28.025L32.558,29.304C32.558,29.633 32.828,29.904 33.158,29.904L41.137,29.904C41.466,29.904 41.737,29.633 41.737,29.304C41.737,28.975 41.466,28.704 41.137,28.704L33.757,28.704L33.757,14.179L41.137,14.179C41.466,14.179 41.737,13.908 41.737,13.579C41.737,13.25 41.466,12.979 41.137,12.979L33.157,12.979C32.827,12.979 32.557,13.25 32.557,13.579L32.557,15.365C31.59,15.424 29.463,15.379 28.315,14.036ZM32.558,26.821L30.336,26.821C29.966,26.821 29.775,27.029 28.864,28.033C27.698,29.317 25.745,31.467 24.101,32.146C22.141,32.992 19.899,32.905 18.011,31.91C17.333,31.549 16.79,30.98 16.463,30.286C16.398,30.138 16.364,29.978 16.363,29.816L16.363,29.294C16.813,29.411 17.248,29.576 17.663,29.788C18.224,30.078 18.846,30.233 19.478,30.239C20.547,30.248 21.607,30.047 22.6,29.65C22.814,29.553 22.953,29.338 22.953,29.103C22.953,28.774 22.682,28.503 22.353,28.503C22.267,28.503 22.183,28.521 22.106,28.556C21.269,28.883 20.376,29.047 19.478,29.039C19.033,29.032 18.596,28.921 18.202,28.715C17.266,28.222 16.228,27.956 15.171,27.938L4.123,27.938C3.37,27.962 2.73,27.364 2.703,26.612C2.722,25.872 3.341,25.277 4.081,25.287L14.018,25.238C14.131,25.255 14.246,25.264 14.362,25.264L17.349,25.264C17.667,25.264 17.934,25.01 17.949,24.692C17.95,24.675 17.951,24.659 17.951,24.642C17.951,24.337 17.708,24.082 17.403,24.067L16.924,24.027L14.135,24.04C13.56,23.876 13.169,23.337 13.192,22.74C13.156,22.067 13.664,21.478 14.335,21.415L17.555,21.393C17.567,21.394 17.579,21.394 17.591,21.394C17.921,21.394 18.192,21.123 18.192,20.793C18.192,20.477 17.943,20.212 17.628,20.193L15.151,20.193C14.608,20.193 14.151,19.586 14.151,18.868C14.08,18.241 14.511,17.659 15.132,17.543L17.463,17.482L18.353,17.482C18.682,17.482 18.953,17.211 18.953,16.882C18.953,16.553 18.682,16.282 18.353,16.282L16.429,16.282C15.844,16.204 15.403,15.7 15.403,15.11C15.403,14.529 15.831,14.03 16.406,13.942C17.165,13.925 18.006,13.88 18.873,13.833C22.144,13.656 26.216,13.433 27.405,14.82C28.876,16.535 31.354,16.639 32.558,16.575L32.558,26.821Z" style="fill-opacity:0.9;fill-rule:nonzero;"/>
    </g>
</svg>
